<svg xmlns="http://www.w3.org/2000/svg" viewBox="0 0 50 50"><title>castbox</title><rect width="50" height="50" rx="9.6" ry="9.6" fill="#f15c30"/><path d="M33.9,20.6a1.8,1.8,0,0,0-2.1,1.7c-.1,2.3-.1,4.7,0,7.1s1,1.7,2.1,1.7a1.9,1.9,0,0,0,1.8-2V22.6h0A2,2,0,0,0,33.9,20.6Zm-4,3.1V17.8a1.9,1.9,0,0,0-2.1-1.9,1.8,1.8,0,0,0-1.8,2v3.5c.1.8-.2,1.3-1,1.3s-1-.5-.9-1.2V16.6c0-1.4-.7-2.2-1.9-2.2a2,2,0,0,0-2,2.3v3.9a.9.9,0,0,1-1,1c-.6,0-.9-.4-.9-1V19a2,2,0,0,0-2.1-1.7,1.9,1.9,0,0,0-1.8,1.9c0,1.2.1,2.4,0,3.6a1,1,0,0,1-1,1.1,1,1,0,0,1-.9-1.1c-.1-1.4-.8-2.1-2-2.1a2,2,0,0,0-1.9,2.2v4.8c0,1.3.7,2.2,1.9,2.2s1.8-.7,2-2.1.5-1,.9-1,1,.5,1,1.2.1,3.8,0,5.7a1.8,1.8,0,0,0,1.1,1.7,2,2,0,0,0,2.8-1.9V25.7c0-.7.2-1.2,1-1.2s.9.5.9,1.2v3.6a2,2,0,0,0,1.9,2.1,1.9,1.9,0,0,0,2-2.1V26.8c0-.6.1-1.1.9-1.1s1,.4,1,1.1v3a1.6,1.6,0,0,0,1.1,1.6,1.9,1.9,0,0,0,2.8-1.8V23.7Zm11.4,1.5a1.9,1.9,0,0,0-3.7.6v1.9a1.8,1.8,0,0,0,1.7,1.7,1.7,1.7,0,0,0,2-1.1A8.1,8.1,0,0,0,41.3,25.2Z" fill="#fff"/></svg>