<svg xmlns="http://www.w3.org/2000/svg" viewBox="0 0 50 50"><title>deezer</title><rect width="50" height="50" rx="9.6" ry="9.6"/><path d="M9.4,25.9h5.7V24.2H9.4Zm0-2.2h5.7V22H9.4Zm0-4v1.8h5.7V19.7Z" fill="#e3221d"/><path d="M9.4,19.2h5.7V17.5H9.4Zm0-3.9V17h5.7V15.3Z" fill="#ee8e7b"/><path d="M15.8,25.9h5.7V24.2H15.8Zm0-2.2h5.7V22H15.8Zm0-4v1.8h5.7V19.7Z" fill="#fddc00"/><path d="M22.2,25.9h5.6V24.2H22.2Zm0-2.2h5.6V22H22.2Zm0-4v1.8h5.6V19.7Z" fill="#d62b87"/><path d="M22.2,19.2h5.6V17.5H22.2Zm0-2.2h5.6V15.3H22.2Zm0-2.3h5.6V13H22.2Zm0-3.9v1.7h5.6V10.8Z" fill="#e7a8cb"/><path d="M28.5,25.9h5.7V24.2H28.5Zm0-2.2h5.7V22H28.5Zm0-4v1.8h5.7V19.7Z" fill="#c3d100"/><path d="M28.5,19.2h5.7V17.5H28.5Zm0-3.9V17h5.7V15.3Z" fill="#e3e17a"/><path d="M34.9,25.9h5.7V24.2H34.9Zm0-2.2h5.7V22H34.9Zm0-4v1.8h5.7V19.7Z" fill="#40b4e5"/><path d="M34.9,19.2h5.7V17.5H34.9Zm0-2.2h5.7V15.3H34.9Zm0-2.3h5.7V13H34.9Zm0-2.2h5.7V10.8H34.9Zm0-3.9v1.7h5.7V8.6Z" fill="#bad8ea"/><path d="M15.2,40h4.3V38.7H16.7V34.8h2.6V33.5H16.7V29.9h2.8V28.5H15.2ZM11.7,28.5H9.2V40h2.2c2.5,0,3.1-.9,3.1-3.8V32.8C14.5,29.4,14.3,28.5,11.7,28.5Zm1.2,7.6c0,2-.2,2.6-1.4,2.6h-.8V29.9h.7c1.3,0,1.5.5,1.5,2.2ZM30.8,40h4.3V38.7H32.4V34.8h2.5V33.5H32.4V29.9h2.7V28.5H30.8Zm9.9-1.4V36.1c0-1.1-.3-1.7-1.4-1.8,1.3-.4,1.4-1.1,1.4-2.7s-.1-3.1-2.4-3.1H35.8V40h1.5V35.1h.6c1.1,0,1.3.2,1.3,1.3V39c0,.5-.1.7.1,1h1.5A7.1,7.1,0,0,1,40.7,38.6Zm-2.9-5h-.5V29.9h.8c1,0,1.2.1,1.2,1.8S39.1,33.6,37.8,33.6ZM25.1,29.9h3.6l-3.6,8.8V40h5.1V38.7H26.7l3.5-8.8V28.5H25.1ZM20.1,40h4.4V38.7H21.7V34.8h2.6V33.5H21.7V29.9h2.8V28.5H20.1Z" fill="#fff"/></svg>