<svg xmlns="http://www.w3.org/2000/svg" viewBox="0 0 50 50"><title>google podcasts</title><rect width="50" height="50" rx="9.6" ry="9.6" fill="#f2f2f2"/><path d="M23.1,18c-.1,2.3-.1,11.4,0,13.7a2.3,2.3,0,0,0,2.4,2.5,2.3,2.3,0,0,0,2.3-2.5c.1-4.6.1-9.1.1-13.7a2.4,2.4,0,0,0-2.5-2.6A2.3,2.3,0,0,0,23.1,18Zm4.8,20.9a2.4,2.4,0,0,0-2.4-2.4A2.5,2.5,0,0,0,23,38.9c0,1-.1,2,0,3A2.3,2.3,0,0,0,25.5,44a2.2,2.2,0,0,0,2.3-2.1C27.9,41.4,27.9,39.4,27.9,38.9ZM25.6,13.1a2.4,2.4,0,0,0,2.3-2.3V7.7a2.4,2.4,0,0,0-2.3-2.1,2.3,2.3,0,0,0-2.4,2,19.3,19.3,0,0,0,0,3.4A2.3,2.3,0,0,0,25.6,13.1Z" fill="#f6ba16"/><path d="M34,23.1a2.2,2.2,0,0,0-2.4,2.4c-.1,1.4-.1,6.9-.1,8.3A2.4,2.4,0,0,0,34,36.4a2.3,2.3,0,0,0,2.3-2.6V25.6A2.3,2.3,0,0,0,34,23.1Zm2.3-7.5a2.2,2.2,0,0,0-2.4-2.3,2.2,2.2,0,0,0-2.3,2.3,12.2,12.2,0,0,0,0,2.7,2.2,2.2,0,0,0,2.3,2.4,2.3,2.3,0,0,0,2.4-2.4A12.2,12.2,0,0,0,36.3,15.6Z" fill="#3ba858"/><path d="M8.7,21.1a2.3,2.3,0,0,0-2.4,2.3v2.8a2.3,2.3,0,0,0,2.5,2.3,2.2,2.2,0,0,0,2.3-2.3V23.4A2.3,2.3,0,0,0,8.7,21.1Zm35.9,2.1a2.4,2.4,0,0,0-4.8,0v3.2a2.3,2.3,0,0,0,2.4,2.1,2.2,2.2,0,0,0,2.4-2.1Z" fill="#4787f0"/><path d="M16.9,26.6a2.4,2.4,0,0,0,2.5-2.4V15.6a2.3,2.3,0,0,0-2.5-2.3,2.2,2.2,0,0,0-2.3,2.4v8.5A2.3,2.3,0,0,0,16.9,26.6Zm2.5,4.5A2.4,2.4,0,0,0,17,28.9a2.3,2.3,0,0,0-2.4,2.3v2.9A2.3,2.3,0,0,0,17,36.4a2.4,2.4,0,0,0,2.4-2.2Z" fill="#e6483b"/></svg>