<svg xmlns="http://www.w3.org/2000/svg" xmlns:xlink="http://www.w3.org/1999/xlink" viewBox="0 0 50 50"><defs><linearGradient id="a" x1="14.97" y1="11.71" x2="35.92" y2="39.92" gradientUnits="userSpaceOnUse"><stop offset="0" stop-color="#ff5e50"/><stop offset="0.25" stop-color="#fe5c6c"/><stop offset="0.38" stop-color="#e3658a"/><stop offset="0.5" stop-color="#b87eb0"/><stop offset="0.63" stop-color="#916cff"/><stop offset="0.76" stop-color="#70bcfb" stop-opacity="0.92"/><stop offset="1" stop-color="#21c7fe"/></linearGradient><linearGradient id="b" x1="24.95" y1="50.52" x2="25.05" y2="0.2" gradientUnits="userSpaceOnUse"><stop offset="0" stop-color="#ff5e50"/><stop offset="0.14" stop-color="#fe5c6c"/><stop offset="0.3" stop-color="#e3658a"/><stop offset="0.4" stop-color="#b87eb0"/><stop offset="0.58" stop-color="#916cff"/><stop offset="0.83" stop-color="#70bcfb" stop-opacity="0.92"/><stop offset="1" stop-color="#21c7fe"/></linearGradient></defs><title>itunes</title><rect x="1.3" y="1.1" width="47.4" height="47.8" rx="9.1" ry="9.1" fill="#fff"/><path d="M35,9.5a.9.9,0,0,1,.9.7c.1.1.1,3,.1,11.6V33.6A4.1,4.1,0,0,1,33,36.5a6.8,6.8,0,0,1-3.1.2,2.6,2.6,0,0,1-1.6-.9,3.1,3.1,0,0,1-1.1-2.5,2.5,2.5,0,0,1,.4-1.4,3,3,0,0,1,1.6-1.7,15.5,15.5,0,0,1,3.1-.9c1.1-.2,1.4-.3,1.6-.6s.3-.2.3-6,0-5.4-.1-5.5a.8.8,0,0,0-.7-.3l-12,2.4a1.1,1.1,0,0,0-.6.7c0,.2-.1,2.4-.1,7.9,0,8.5,0,8.3-.3,9.2a5.9,5.9,0,0,1-.4.8,3.7,3.7,0,0,1-1.3,1.2,6.5,6.5,0,0,1-4.1.7,3.3,3.3,0,0,1-2.4-2.2,4.4,4.4,0,0,1-.1-2A3.2,3.2,0,0,1,13,34c.7-.8,1.6-1.1,4-1.6l1.1-.2a1.8,1.8,0,0,0,.8-.7c.1-.2.1-.7.1-9.2V13.2a1.8,1.8,0,0,1,.8-.7l14-2.9Z" fill="url(#a)"/><path d="M40.7,3a6.6,6.6,0,0,1,6.6,6.6V40.4A6.6,6.6,0,0,1,40.7,47H9.9a6.7,6.7,0,0,1-6.6-6.6V9.6A6.7,6.7,0,0,1,9.9,3H40.7m-.3-3H9.6A9.6,9.6,0,0,0,0,9.6V40.4A9.6,9.6,0,0,0,9.6,50H40.4A9.6,9.6,0,0,0,50,40.4V9.6A9.6,9.6,0,0,0,40.4,0Z" fill="url(#b)"/></svg>