<svg xmlns="http://www.w3.org/2000/svg" xmlns:xlink="http://www.w3.org/1999/xlink" viewBox="0 0 50 50"><defs><linearGradient id="a" x1="25" y1="50" x2="25" y2="17.58" gradientUnits="userSpaceOnUse"><stop offset="0" stop-color="#ff6039"/><stop offset="1" stop-color="#fe9402"/></linearGradient></defs><title>overcastC</title><rect width="50" height="50" rx="9.6" ry="9.6" fill="url(#a)"/><circle cx="25" cy="25" r="19.4" transform="translate(-5.1 6.4) rotate(-13.3)" fill="#fefefe"/><path d="M38.7,11.3A19.1,19.1,0,0,0,25,5.6h0A19.4,19.4,0,0,0,5.6,25a19.1,19.1,0,0,0,5.7,13.7A19.4,19.4,0,0,0,25,44.4h0A19.5,19.5,0,0,0,44.4,25,19.1,19.1,0,0,0,38.7,11.3ZM21.1,41.6l1.5-3.7,1,1.3h-.1l-.4.5Zm2.4-6.1L25,31.8l1.5,3.7L25,37.6Zm-.3,6.7,1.7-1.6,1.7,1.6Zm3-3.1,1.1-1.4,1.6,3.9A20.5,20.5,0,0,1,26.2,39.1Zm4.4,2.2L26.3,28.2a3.2,3.2,0,0,0,2-2.2,2.8,2.8,0,0,0-.1-2.2,3.4,3.4,0,0,0-3.4-2.3,3.7,3.7,0,0,0-3.1,2.4,3.6,3.6,0,0,0,.2,2.7,3.5,3.5,0,0,0,1.8,1.6L19.4,41.3a17.2,17.2,0,1,1,11.2,0Z" fill="#2b3035"/><path d="M18.5,25a6.4,6.4,0,0,1,1.8-4.5l.2-.2L19,18.8V19a8.2,8.2,0,0,0-2.5,6.1A7.8,7.8,0,0,0,18.9,31l.2.2,1.4-1.5-.2-.2A6.4,6.4,0,0,1,18.5,25Zm-5.3,0a11.3,11.3,0,0,1,3.4-8.3l.2-.2L15.3,15l-.2.2a13.8,13.8,0,0,0-4,10.8,13.6,13.6,0,0,0,4,8.8V35l1.6-1.5-.2-.2A11.5,11.5,0,0,1,13.2,25Zm17.9-6v-.2l-1.5,1.5.2.2a6.7,6.7,0,0,1,0,9.1h-.2L31,31.2V31a8.4,8.4,0,0,0,2.5-6A8.2,8.2,0,0,0,31.1,19Zm7.8,5a13.8,13.8,0,0,0-4-8.8V15l-1.6,1.5.2.2A11.3,11.3,0,0,1,36.8,25a11.3,11.3,0,0,1-3.4,8.3l-.2.2L34.7,35l.2-.2A13.8,13.8,0,0,0,38.9,24Z" fill="#ff781d"/></svg>