<svg xmlns="http://www.w3.org/2000/svg" viewBox="0 0 50 50"><title>playerfm</title><rect width="50" height="50" rx="9.6" ry="9.6" fill="#bb1f2a"/><path d="M27.3,15.9l.4.2a10.5,10.5,0,0,1,4.7,3.6c.5.9,1,1.8,1.4,2.7a1.4,1.4,0,0,0,1.5.8,1.3,1.3,0,0,0,1-1.4c-.1-.1-.1-.3-.2-.6A13.5,13.5,0,0,0,32.4,16a12.3,12.3,0,0,0-4-2.3,1.2,1.2,0,0,0-1.6.6A1.3,1.3,0,0,0,27.3,15.9ZM26.5,20a7.2,7.2,0,0,1,3.3,3.4,1.2,1.2,0,0,0,1.6.4,1.2,1.2,0,0,0,.7-1.5l-.3-.6a8.3,8.3,0,0,0-3.6-3.6,1.1,1.1,0,0,0-.7-.3,1.3,1.3,0,0,0-1.6,1.3A.9.9,0,0,0,26.5,20Zm13.8.7a15.7,15.7,0,0,0-2.5-4.8,16.3,16.3,0,0,0-8.3-6.1,1.5,1.5,0,0,0-.9-.2,1.3,1.3,0,0,0-1.2,1.1,1.3,1.3,0,0,0,1,1.3,14.7,14.7,0,0,1,9.4,9.4,1.6,1.6,0,0,0,.4.7,1.1,1.1,0,0,0,1.4.4,1.3,1.3,0,0,0,.8-1.3A4.3,4.3,0,0,1,40.3,20.7Zm-4.8,4.5a2.9,2.9,0,0,0-3,1.7c-.2.4-.3.9-.5,1.4A7.9,7.9,0,0,1,23.4,33a7.8,7.8,0,0,1-.9-15.3,5.9,5.9,0,0,0,1.7-1,3,3,0,0,0,.1-3.5A2.8,2.8,0,0,0,21,12.1,13.7,13.7,0,0,0,24.7,39l2.3-.2A13.7,13.7,0,0,0,38,28.7a3.3,3.3,0,0,0,0-1.4A3,3,0,0,0,35.5,25.2Z" fill="#fff"/></svg>