<svg xmlns="http://www.w3.org/2000/svg" viewBox="0 0 50 50"><title>podbean</title><rect width="50" height="50" rx="9.6" ry="9.6"/><path d="M41.8,20a19.8,19.8,0,0,0-5.1-5.3,20.3,20.3,0,0,0-11.6-3.8,17.5,17.5,0,0,0-4,.4,20.1,20.1,0,0,0-8.4,3.8,22.9,22.9,0,0,0-2.3,2.1,20.1,20.1,0,0,0-2.2,2.9,2.1,2.1,0,0,0,.1,2.4,2.2,2.2,0,0,0,2.3.6A2.6,2.6,0,0,0,11.8,22a16.1,16.1,0,0,1,5.4-5A17.7,17.7,0,0,1,21,15.5a12.6,12.6,0,0,1,2.7-.4,15.5,15.5,0,0,1,9.6,2.2,17,17,0,0,1,5.1,4.9,2,2,0,0,0,2.2,1A2.1,2.1,0,0,0,41.8,20ZM25.3,18.3a15.5,15.5,0,0,0-3.1.3,12.9,12.9,0,0,0-7.8,5.5,1.8,1.8,0,0,0,0,2,2,2,0,0,0,1.7,1.1,2.4,2.4,0,0,0,2-1.2,8.4,8.4,0,0,1,9.7-3.1,8.3,8.3,0,0,1,4.3,3.3,2,2,0,0,0,2.9.6,2,2,0,0,0,.5-2.9A12.7,12.7,0,0,0,25.3,18.3Zm-.3,8a6.4,6.4,0,1,0,0,12.8,6.4,6.4,0,0,0,6.4-6.4A6.3,6.3,0,0,0,25,26.3Zm0,9.8a3.4,3.4,0,0,1-3.4-3.4,3.4,3.4,0,1,1,6.8,0A3.5,3.5,0,0,1,25,36.1Z" fill="#69a717"/><path d="M25,29.3a3.4,3.4,0,0,1,3.4,3.4A3.5,3.5,0,0,1,25,36.1a3.4,3.4,0,0,1-3.4-3.4A3.4,3.4,0,0,1,25,29.3Z" fill="#eff0f1"/></svg>