<svg xmlns="http://www.w3.org/2000/svg" xmlns:xlink="http://www.w3.org/1999/xlink" viewBox="0 0 50 50"><defs><linearGradient id="a" x1="25.21" y1="49.68" x2="24.79" y2="1.05" gradientUnits="userSpaceOnUse"><stop offset="0" stop-color="#176bf0"/><stop offset="1" stop-color="#3389f0"/></linearGradient></defs><title>podcast</title><rect width="50" height="50" rx="9.6" ry="9.6" fill="url(#a)"/><path d="M24.9,34.8a1.2,1.2,0,0,0,1.3-1.2A1.2,1.2,0,0,0,25,32.4H23.9a10,10,0,0,1-.3-19.9h1.5a1.4,1.4,0,0,0,1.1-.9,1.4,1.4,0,0,0-.3-1.2c-.3-.4-.8-.4-1.3-.4A12.6,12.6,0,0,0,12.4,22.3l.3,2.4A12.6,12.6,0,0,0,24.9,34.8Zm-.2-19.6a7.1,7.1,0,0,0-6.8,6.9v.2A1.1,1.1,0,0,0,19,23.5a1.2,1.2,0,0,0,1.3-1.1,1.1,1.1,0,0,0,.1-.5,4.5,4.5,0,0,1,3.2-4,4.6,4.6,0,0,1,4.9,1.4,5,5,0,0,1,1.2,2.9c0,.9.5,1.4,1.3,1.3s1.2-.6,1.1-1.5a2.8,2.8,0,0,0-.1-.9A7.1,7.1,0,0,0,24.7,15.2Zm16.9,6.2c-.7,0-1.2.5-1.3,1.5a14.8,14.8,0,0,1-5.7,11.4c-5,4.1-11.3,4.8-16.7,1.7s-8-7.3-8.2-13.2a1.3,1.3,0,0,0-1.3-1.4,1.3,1.3,0,0,0-1.3,1.4A16.6,16.6,0,0,0,9,30.5c3.5,6.4,8.9,9.4,16.1,9.7l3.1-.3a17.6,17.6,0,0,0,14.7-17A1.3,1.3,0,0,0,41.6,21.4Z" fill="#fff"/></svg>