<svg xmlns="http://www.w3.org/2000/svg" viewBox="0 0 50 50"><title>soundcloud</title><rect width="50" height="50" rx="9.6" ry="9.6" fill="#ff5c0b"/><path d="M6.8,24.1H6.7l-.3,2.1.3,2H7l.3-2L7,24.2Zm1.6-1.2H8.1l-.4,3.4.4,3.2c0,.1,0,.2.1.2a.2.2,0,0,0,.2-.2l.4-3.2Zm5.7-3-.3.2-.2,6.2.2,3.9q.1.3.3.3a.3.3,0,0,0,.3-.3h0l.3-3.9-.3-6.2C14.4,20,14.3,19.9,14.1,19.9Zm-3,2.1a.2.2,0,0,0-.2.2l-.3,4.1.3,3.9a.2.2,0,0,0,.2.2c.2,0,.3-.1.3-.2l.3-3.9-.3-4.1C11.4,22.1,11.3,22,11.1,22Zm6.1,8.5a.3.3,0,0,0,.3-.3l.3-3.9-.3-8.2a.3.3,0,0,0-.3-.3c-.2,0-.4.1-.4.3l-.2,8.2.2,3.9C16.8,30.4,17,30.5,17.2,30.5Zm6.2,0a.4.4,0,0,0,.4-.4h0l.2-3.8-.2-9.5a.4.4,0,0,0-.4-.4.5.5,0,0,0-.5.4l-.2,9.5.2,3.8A.5.5,0,0,0,23.4,30.5Zm-3.2,0a.4.4,0,0,0,.4-.4h0l.3-3.8L20.6,18a.4.4,0,0,0-.4-.4.4.4,0,0,0-.4.4l-.2,8.3.2,3.8A.4.4,0,0,0,20.2,30.5Zm-7.6,0a.3.3,0,0,0,.3-.3l.3-3.9-.3-3.8c0-.1-.1-.2-.3-.2a.2.2,0,0,0-.2.2l-.3,3.8.3,3.9C12.4,30.4,12.5,30.5,12.6,30.5Zm-2.9-.2c.1,0,.1-.1.2-.2l.4-3.8-.4-4c-.1-.1-.1-.2-.2-.2a.2.2,0,0,0-.2.2l-.4,4,.4,3.8ZM21.8,17.9a.5.5,0,0,0-.5.4l-.2,8,.2,3.8a.5.5,0,0,0,.5.4.4.4,0,0,0,.4-.4h0l.2-3.8-.2-8A.4.4,0,0,0,21.8,17.9ZM15.6,30.5a.3.3,0,0,0,.3-.3l.4-3.9-.4-7.6a.3.3,0,0,0-.3-.3.5.5,0,0,0-.3.3L15,26.3l.3,3.9A.3.3,0,0,0,15.6,30.5Zm3.5-.3h0l.2-3.9-.2-8.5c0-.2-.2-.3-.4-.3s-.4.1-.4.3l-.2,8.5.2,3.9c0,.2.2.3.4.3s.4-.1.4-.3ZM39,21.4a3.9,3.9,0,0,0-1.8.4,8,8,0,0,0-8-7.4,7.2,7.2,0,0,0-2.9.6c-.4.1-.5.2-.5.5V30a.5.5,0,0,0,.5.5H39A4.6,4.6,0,0,0,43.6,26,4.7,4.7,0,0,0,39,21.4ZM24.9,15.5a.5.5,0,0,0-.5.5l-.2,10.3.2,3.7a.5.5,0,0,0,1,0h0l.2-3.7L25.4,16A.5.5,0,0,0,24.9,15.5Zm-14.8,18c-.5-.2-.7-.2-.7-.5s.1-.3.5-.3a1.2,1.2,0,0,1,.8.4l.5-.5a1.7,1.7,0,0,0-1.3-.5,1.1,1.1,0,0,0-1.2,1c0,.6.5.8,1.1,1s.7.2.7.5-.1.3-.5.3a1,1,0,0,1-.9-.4l-.5.5a1.4,1.4,0,0,0,1.3.6c.9,0,1.4-.4,1.4-1.1S10.7,33.6,10.1,33.5Zm3.1-1.4c-.9,0-1.4.7-1.4,1.7s.5,1.8,1.4,1.8,1.5-.7,1.5-1.8S14.2,32.1,13.2,32.1Zm0,2.8c-.5,0-.7-.5-.7-1.1s.2-1,.7-1,.8.4.8,1S13.8,34.9,13.2,34.9Zm4.3-.9c0,.6-.3.9-.7.9s-.7-.3-.7-.9V32.1h-.7V34a1.4,1.4,0,1,0,2.8,0V32.1h-.7Zm3.6-.4v.7l-.2-.4-1.2-1.8H19v3.4h.7V33.3c0,.1.1.2.2.4l1.3,1.8h.6V32.1h-.7Zm2.6-1.5h-1v3.4h1a1.6,1.6,0,0,0,1.7-1.7A1.5,1.5,0,0,0,23.7,32.1Zm0,2.8h-.4V32.8h.4c.7,0,1,.3,1,1S24.4,34.9,23.7,34.9Zm3.8-2.1a.9.9,0,0,1,.7.3l.6-.3a1.3,1.3,0,0,0-1.3-.7A1.5,1.5,0,0,0,26,33.8c0,1.1.6,1.8,1.5,1.8a1.4,1.4,0,0,0,1.3-.8l-.6-.3a.8.8,0,0,1-.7.4c-.5,0-.8-.5-.8-1.1S27,32.8,27.5,32.8Zm2.6-.7h-.7v3.4h2v-.6H30.1Zm3.1,0a1.5,1.5,0,0,0-1.5,1.7c0,1.1.6,1.8,1.5,1.8s1.5-.7,1.5-1.8S34.2,32.1,33.2,32.1Zm0,2.8c-.5,0-.8-.5-.8-1.1s.3-1,.8-1,.8.4.8,1S33.8,34.9,33.2,34.9Zm4.3-.9c0,.6-.3.9-.7.9s-.7-.3-.7-.9V32.1h-.7V34c0,1,.5,1.6,1.4,1.6s1.3-.6,1.3-1.6V32.1h-.6Zm2.6-1.9H39v3.4h1a1.6,1.6,0,0,0,1.8-1.7A1.6,1.6,0,0,0,40.1,32.1ZM40,34.9h-.3V32.8H40c.8,0,1.1.3,1.1,1A1,1,0,0,1,40,34.9Z" fill="#fff"/></svg>