<svg xmlns="http://www.w3.org/2000/svg" viewBox="0 0 50 50"><title>spotify</title><rect width="50" height="50" rx="9.6" ry="9.6" fill="#1ed761"/><path d="M42,19.8a1.9,1.9,0,0,0-1.1-1.4A23.8,23.8,0,0,0,35.8,16a44.5,44.5,0,0,0-13.5-2.3,51.5,51.5,0,0,0-5.6.2,29.7,29.7,0,0,0-5.2.8l-2.1.5a2.3,2.3,0,0,0-1.5,2.2,2.3,2.3,0,0,0,1.6,2.1,2.9,2.9,0,0,0,1.3,0l2.1-.6a38.3,38.3,0,0,1,5.8-.7h5.1a38.6,38.6,0,0,1,4.9.6,31.1,31.1,0,0,1,6.8,1.9,19.1,19.1,0,0,1,3.2,1.6,2.3,2.3,0,0,0,3.4-2A1.1,1.1,0,0,0,42,19.8Zm-4.2,6.7-.3-.2a28.5,28.5,0,0,0-5.9-2.6A35.3,35.3,0,0,0,19.1,22a38.1,38.1,0,0,0-5.9.7l-2.4.6a2.1,2.1,0,0,0-1.3,1.8,1.9,1.9,0,0,0,1.2,1.7,1.5,1.5,0,0,0,1.3,0,30.1,30.1,0,0,1,8.3-1.1,33.9,33.9,0,0,1,6.4.6,29.5,29.5,0,0,1,7.6,2.5l1.6.9a1.9,1.9,0,0,0,2.5-.6A1.9,1.9,0,0,0,37.8,26.5Zm-3.1,6.9A25.2,25.2,0,0,0,30,31.2a28.9,28.9,0,0,0-9.2-1.4H17.6a52.1,52.1,0,0,0-5.7.9l-.4.2a1.3,1.3,0,0,0-.9,1.6A1.4,1.4,0,0,0,12,33.8h.7a40.8,40.8,0,0,1,6.9-.9,24.5,24.5,0,0,1,5.4.3A21.2,21.2,0,0,1,33.2,36a.5.5,0,0,1,.4.2,1.6,1.6,0,0,0,1.9-.6,1.6,1.6,0,0,0-.4-2Z" fill-rule="evenodd"/></svg>