<svg xmlns="http://www.w3.org/2000/svg" viewBox="0 0 50 50"><title>tunein</title><rect width="50" height="50" rx="9.6" ry="9.6" fill="#1c203c"/><path d="M13.2,23.6H10.1a.2.2,0,0,0-.2.2v.7a.2.2,0,0,0,.2.2h.8c.2,0,.2,0,.2.2v3.9a.3.3,0,0,0,.3.3h.5c.3,0,.3,0,.3-.3V24.9c0-.2.1-.2.2-.2h.8c.2,0,.2-.1.2-.2v-.7C13.4,23.7,13.4,23.6,13.2,23.6Zm4.5,0h-.6c-.3,0-.3,0-.3.3v3.5c0,.2,0,.4-.3.5a.9.9,0,0,1-.9.1.9.9,0,0,1-.3-.7V23.9c0-.3,0-.3-.3-.3h-.5c-.3,0-.3,0-.3.3v3.5a1.6,1.6,0,0,0,1.4,1.7,1.7,1.7,0,0,0,2.1-.9,2,2,0,0,0,.2-1.1V23.9C17.9,23.6,17.9,23.6,17.7,23.6Zm4.4,0h-.5c-.3,0-.4,0-.4.3a22.5,22.5,0,0,1,0,2.6c0,.1.1.2,0,.2s-.1-.1-.1-.2-.6-1.7-1-2.6a.3.3,0,0,0-.3-.3h-.7c-.3,0-.3,0-.3.3v4.9c0,.3.1.3.3.3h.5c.3,0,.3,0,.3-.3V26.2c.1,0,.1.1.1.2a18.6,18.6,0,0,1,1,2.5l.3.2h.8c.2,0,.2-.1.2-.2V23.8C22.3,23.7,22.3,23.6,22.1,23.6Zm4,4.4H24.5a.2.2,0,0,1-.2-.2v-.7a.2.2,0,0,1,.2-.2h1.6c.2,0,.2-.1.2-.2v-.6c0-.3,0-.3-.3-.3H24.5c-.1,0-.2,0-.2-.2v-.7c0-.2.1-.2.2-.2h1.6c.3,0,.3,0,.3-.3v-.5c0-.3,0-.3-.3-.3H23.5c-.3,0-.3,0-.3.3v4.9a.3.3,0,0,0,.3.3h2.7c.2,0,.2-.1.2-.2v-.6C26.4,28,26.4,28,26.1,28Zm18.9.3v-12a.5.5,0,0,0-.4-.5H30.2c-.3,0-.5.2-.5.6v3.1c0,.1,0,.2-.1.2H6.3a.6.6,0,0,0-.5.5V32.5a.5.5,0,0,0,.5.5H30.4a.6.6,0,0,0,.5-.6V29.3c0-.2.1-.2.2-.2H44.6a.5.5,0,0,0,.4-.6ZM29.7,31.6c0,.2,0,.2-.2.2H7.2c-.2,0-.2,0-.2-.2V21.1c0-.2,0-.3.2-.3H29.5c.2,0,.2.1.2.3ZM36.8,25a.2.2,0,0,1-.2.2H34.1c-.2,0-.2-.1-.2-.2v-.7c0-.1,0-.2.2-.2h.5c.1,0,.2,0,.2-.1V20.9a.2.2,0,0,0-.2-.2h-.4c-.2,0-.3,0-.3-.2v-.6c0-.2.1-.2.3-.2h2.3c.1,0,.2,0,.2.2v.6c0,.2-.1.2-.2.2h-.4c-.2,0-.2.1-.2.2v3c0,.2,0,.2.1.2h.6a.2.2,0,0,1,.2.2Zm4.4-.1a.3.3,0,0,1-.3.3h-.7l-.4-.2-.9-2.5a.3.3,0,0,0-.1-.2h-.1v2.6c.1.2,0,.3-.2.3h-.6a.3.3,0,0,1-.3-.3V20c0-.3.1-.3.3-.3h.7c.2,0,.3,0,.4.2l.9,2.7a.3.3,0,0,1,.1.2c.1,0,.1-.1.1-.2V19.9c0-.2,0-.2.3-.2h.5c.2,0,.3,0,.3.3v4.9Z" fill="#13d1c8"/></svg>